<svg id="svg_circle" xmlns="http://www.w3.org/2000/svg" data-w="300" data-h="300" width="636px" height="636px" viewBox="0 0 300 300" style="width: 636px; height: 636px;"><rect x="123.5" y="3.5" fill="#FF0000" width="5" height="5" class="filled"></rect><rect x="129.5" y="3.5" fill="#FF0000" width="5" height="5" class="filled"></rect><rect x="135.5" y="3.5" fill="#FF0000" width="5" height="5" class="filled"></rect><rect x="141.5" y="3.5" fill="#FF0000" width="5" height="5" class="filled"></rect><rect x="147.5" y="3.5" fill="#808080" width="5" height="5" class="filled"></rect><rect x="153.5" y="3.5" fill="#FF0000" width="5" height="5" class="filled"></rect><rect x="159.5" y="3.5" fill="#FF0000" width="5" height="5" class="filled"></rect><rect x="165.5" y="3.5" fill="#FF0000" width="5" height="5" class="filled"></rect><rect x="171.5" y="3.5" fill="#FF0000" width="5" height="5" class="filled"></rect><rect x="99.5" y="9.5" fill="#FF0000" width="5" height="5" class="filled"></rect><rect x="105.5" y="9.5" fill="#FF0000" width="5" height="5" class="filled"></rect><rect x="111.5" y="9.5" fill="#FF0000" width="5" height="5" class="filled"></rect><rect x="117.5" y="9.5" fill="#FF0000" width="5" height="5" class="filled"></rect><rect x="147.5" y="9.5" fill="#EEEEEE" width="5" height="5" class=""></rect><rect x="177.5" y="9.5" fill="#FF0000" width="5" height="5" class="filled"></rect><rect x="183.5" y="9.5" fill="#FF0000" width="5" height="5" class="filled"></rect><rect x="189.5" y="9.5" fill="#FF0000" width="5" height="5" class="filled"></rect><rect x="195.5" y="9.5" fill="#FF0000" width="5" height="5" class="filled"></rect><rect x="87.5" y="15.5" fill="#FF0000" width="5" height="5" class="filled"></rect><rect x="93.5" y="15.5" fill="#FF0000" width="5" height="5" class="filled"></rect><rect x="147.5" y="15.5" fill="#F8F8F8" width="5" height="5" class=""></rect><rect x="201.5" y="15.5" fill="#FF0000" width="5" height="5" class="filled"></rect><rect x="207.5" y="15.5" fill="#FF0000" width="5" height="5" class="filled"></rect><rect x="75.5" y="21.5" fill="#FF0000" width="5" height="5" class="filled"></rect><rect x="81.5" y="21.5" fill="#FF0000" width="5" height="5" class="filled"></rect><rect x="147.5" y="21.5" fill="#EEEEEE" width="5" height="5" class=""></rect><rect x="213.5" y="21.5" fill="#FF0000" width="5" height="5" class="filled"></rect><rect x="219.5" y="21.5" fill="#FF0000" width="5" height="5" class="filled"></rect><rect x="63.5" y="27.5" fill="#FF0000" width="5" height="5" class="filled"></rect><rect x="69.5" y="27.5" fill="#FF0000" width="5" height="5" class="filled"></rect><rect x="147.5" y="27.5" fill="#F8F8F8" width="5" height="5" class=""></rect><rect x="225.5" y="27.5" fill="#FF0000" width="5" height="5" class="filled"></rect><rect x="231.5" y="27.5" fill="#FF0000" width="5" height="5" class="filled"></rect><rect x="57.5" y="33.5" fill="#FF0000" width="5" height="5" class="filled"></rect><rect x="147.5" y="33.5" fill="#EEEEEE" width="5" height="5" class=""></rect><rect x="237.5" y="33.5" fill="#FF0000" width="5" height="5" class="filled"></rect><rect x="51.5" y="39.5" fill="#FF0000" width="5" height="5" class="filled"></rect><rect x="147.5" y="39.5" fill="#F8F8F8" width="5" height="5" class=""></rect><rect x="243.5" y="39.5" fill="#FF0000" width="5" height="5" class="filled"></rect><rect x="45.5" y="45.5" fill="#FF0000" width="5" height="5" class="filled"></rect><rect x="147.5" y="45.5" fill="#EEEEEE" width="5" height="5" class=""></rect><rect x="249.5" y="45.5" fill="#FF0000" width="5" height="5" class="filled"></rect><rect x="39.5" y="51.5" fill="#FF0000" width="5" height="5" class="filled"></rect><rect x="147.5" y="51.5" fill="#F8F8F8" width="5" height="5" class=""></rect><rect x="255.5" y="51.5" fill="#FF0000" width="5" height="5" class="filled"></rect><rect x="33.5" y="57.5" fill="#FF0000" width="5" height="5" class="filled"></rect><rect x="147.5" y="57.5" fill="#EEEEEE" width="5" height="5" class=""></rect><rect x="261.5" y="57.5" fill="#FF0000" width="5" height="5" class="filled"></rect><rect x="27.5" y="63.5" fill="#FF0000" width="5" height="5" class="filled"></rect><rect x="147.5" y="63.5" fill="#F8F8F8" width="5" height="5" class=""></rect><rect x="267.5" y="63.5" fill="#FF0000" width="5" height="5" class="filled"></rect><rect x="27.5" y="69.5" fill="#FF0000" width="5" height="5" class="filled"></rect><rect x="147.5" y="69.5" fill="#EEEEEE" width="5" height="5" class=""></rect><rect x="267.5" y="69.5" fill="#FF0000" width="5" height="5" class="filled"></rect><rect x="21.5" y="75.5" fill="#FF0000" width="5" height="5" class="filled"></rect><rect x="147.5" y="75.5" fill="#F8F8F8" width="5" height="5" class=""></rect><rect x="273.5" y="75.5" fill="#FF0000" width="5" height="5" class="filled"></rect><rect x="21.5" y="81.5" fill="#FF0000" width="5" height="5" class="filled"></rect><rect x="147.5" y="81.5" fill="#EEEEEE" width="5" height="5" class=""></rect><rect x="273.5" y="81.5" fill="#FF0000" width="5" height="5" class="filled"></rect><rect x="15.5" y="87.5" fill="#FF0000" width="5" height="5" class="filled"></rect><rect x="147.5" y="87.5" fill="#F8F8F8" width="5" height="5" class=""></rect><rect x="279.5" y="87.5" fill="#FF0000" width="5" height="5" class="filled"></rect><rect x="15.5" y="93.5" fill="#FF0000" width="5" height="5" class="filled"></rect><rect x="147.5" y="93.5" fill="#EEEEEE" width="5" height="5" class=""></rect><rect x="279.5" y="93.5" fill="#FF0000" width="5" height="5" class="filled"></rect><rect x="9.5" y="99.5" fill="#FF0000" width="5" height="5" class="filled"></rect><rect x="147.5" y="99.5" fill="#F8F8F8" width="5" height="5" class=""></rect><rect x="285.5" y="99.5" fill="#FF0000" width="5" height="5" class="filled"></rect><rect x="9.5" y="105.5" fill="#FF0000" width="5" height="5" class="filled"></rect><rect x="147.5" y="105.5" fill="#EEEEEE" width="5" height="5" class=""></rect><rect x="285.5" y="105.5" fill="#FF0000" width="5" height="5" class="filled"></rect><rect x="9.5" y="111.5" fill="#FF0000" width="5" height="5" class="filled"></rect><rect x="147.5" y="111.5" fill="#F8F8F8" width="5" height="5" class=""></rect><rect x="285.5" y="111.5" fill="#FF0000" width="5" height="5" class="filled"></rect><rect x="9.5" y="117.5" fill="#FF0000" width="5" height="5" class="filled"></rect><rect x="147.5" y="117.5" fill="#EEEEEE" width="5" height="5" class=""></rect><rect x="285.5" y="117.5" fill="#FF0000" width="5" height="5" class="filled"></rect><rect x="3.5" y="123.5" fill="#FF0000" width="5" height="5" class="filled"></rect><rect x="147.5" y="123.5" fill="#F8F8F8" width="5" height="5" class=""></rect><rect x="291.5" y="123.5" fill="#FF0000" width="5" height="5" class="filled"></rect><rect x="3.5" y="129.5" fill="#FF0000" width="5" height="5" class="filled"></rect><rect x="147.5" y="129.5" fill="#EEEEEE" width="5" height="5" class=""></rect><rect x="291.5" y="129.5" fill="#FF0000" width="5" height="5" class="filled"></rect><rect x="3.5" y="135.5" fill="#FF0000" width="5" height="5" class="filled"></rect><rect x="147.5" y="135.5" fill="#F8F8F8" width="5" height="5" class=""></rect><rect x="291.5" y="135.5" fill="#FF0000" width="5" height="5" class="filled"></rect><rect x="3.5" y="141.5" fill="#FF0000" width="5" height="5" class="filled"></rect><rect x="147.5" y="141.5" fill="#EEEEEE" width="5" height="5" class=""></rect><rect x="291.5" y="141.5" fill="#FF0000" width="5" height="5" class="filled"></rect><rect x="3.5" y="147.5" fill="#808080" width="5" height="5" class="filled"></rect><rect x="9.5" y="147.5" fill="#EEEEEE" width="5" height="5" class=""></rect><rect x="15.5" y="147.5" fill="#F8F8F8" width="5" height="5" class=""></rect><rect x="21.5" y="147.5" fill="#EEEEEE" width="5" height="5" class=""></rect><rect x="27.5" y="147.5" fill="#F8F8F8" width="5" height="5" class=""></rect><rect x="33.5" y="147.5" fill="#EEEEEE" width="5" height="5" class=""></rect><rect x="39.5" y="147.5" fill="#F8F8F8" width="5" height="5" class=""></rect><rect x="45.5" y="147.5" fill="#EEEEEE" width="5" height="5" class=""></rect><rect x="51.5" y="147.5" fill="#F8F8F8" width="5" height="5" class=""></rect><rect x="57.5" y="147.5" fill="#EEEEEE" width="5" height="5" class=""></rect><rect x="63.5" y="147.5" fill="#F8F8F8" width="5" height="5" class=""></rect><rect x="69.5" y="147.5" fill="#EEEEEE" width="5" height="5" class=""></rect><rect x="75.5" y="147.5" fill="#F8F8F8" width="5" height="5" class=""></rect><rect x="81.5" y="147.5" fill="#EEEEEE" width="5" height="5" class=""></rect><rect x="87.5" y="147.5" fill="#F8F8F8" width="5" height="5" class=""></rect><rect x="93.5" y="147.5" fill="#EEEEEE" width="5" height="5" class=""></rect><rect x="99.5" y="147.5" fill="#F8F8F8" width="5" height="5" class=""></rect><rect x="105.5" y="147.5" fill="#EEEEEE" width="5" height="5" class=""></rect><rect x="111.5" y="147.5" fill="#F8F8F8" width="5" height="5" class=""></rect><rect x="117.5" y="147.5" fill="#EEEEEE" width="5" height="5" class=""></rect><rect x="123.5" y="147.5" fill="#F8F8F8" width="5" height="5" class=""></rect><rect x="129.5" y="147.5" fill="#EEEEEE" width="5" height="5" class=""></rect><rect x="135.5" y="147.5" fill="#F8F8F8" width="5" height="5" class=""></rect><rect x="141.5" y="147.5" fill="#EEEEEE" width="5" height="5" class=""></rect><rect x="147.5" y="147.5" fill="#F8F8F8" width="5" height="5" class=""></rect><rect x="153.5" y="147.5" fill="#EEEEEE" width="5" height="5" class=""></rect><rect x="159.5" y="147.5" fill="#F8F8F8" width="5" height="5" class=""></rect><rect x="165.5" y="147.5" fill="#EEEEEE" width="5" height="5" class=""></rect><rect x="171.5" y="147.5" fill="#F8F8F8" width="5" height="5" class=""></rect><rect x="177.5" y="147.5" fill="#EEEEEE" width="5" height="5" class=""></rect><rect x="183.5" y="147.5" fill="#F8F8F8" width="5" height="5" class=""></rect><rect x="189.5" y="147.5" fill="#EEEEEE" width="5" height="5" class=""></rect><rect x="195.5" y="147.5" fill="#F8F8F8" width="5" height="5" class=""></rect><rect x="201.5" y="147.5" fill="#EEEEEE" width="5" height="5" class=""></rect><rect x="207.5" y="147.5" fill="#F8F8F8" width="5" height="5" class=""></rect><rect x="213.5" y="147.5" fill="#EEEEEE" width="5" height="5" class=""></rect><rect x="219.5" y="147.5" fill="#F8F8F8" width="5" height="5" class=""></rect><rect x="225.5" y="147.5" fill="#EEEEEE" width="5" height="5" class=""></rect><rect x="231.5" y="147.5" fill="#F8F8F8" width="5" height="5" class=""></rect><rect x="237.5" y="147.5" fill="#EEEEEE" width="5" height="5" class=""></rect><rect x="243.5" y="147.5" fill="#F8F8F8" width="5" height="5" class=""></rect><rect x="249.5" y="147.5" fill="#EEEEEE" width="5" height="5" class=""></rect><rect x="255.5" y="147.5" fill="#F8F8F8" width="5" height="5" class=""></rect><rect x="261.5" y="147.5" fill="#EEEEEE" width="5" height="5" class=""></rect><rect x="267.5" y="147.5" fill="#F8F8F8" width="5" height="5" class=""></rect><rect x="273.5" y="147.5" fill="#EEEEEE" width="5" height="5" class=""></rect><rect x="279.5" y="147.5" fill="#F8F8F8" width="5" height="5" class=""></rect><rect x="285.5" y="147.5" fill="#EEEEEE" width="5" height="5" class=""></rect><rect x="291.5" y="147.5" fill="#808080" width="5" height="5" class="filled"></rect><rect x="3.5" y="153.5" fill="#FF0000" width="5" height="5" class="filled"></rect><rect x="147.5" y="153.5" fill="#EEEEEE" width="5" height="5" class=""></rect><rect x="291.5" y="153.5" fill="#FF0000" width="5" height="5" class="filled"></rect><rect x="3.5" y="159.5" fill="#FF0000" width="5" height="5" class="filled"></rect><rect x="147.5" y="159.5" fill="#F8F8F8" width="5" height="5" class=""></rect><rect x="291.5" y="159.5" fill="#FF0000" width="5" height="5" class="filled"></rect><rect x="3.5" y="165.5" fill="#FF0000" width="5" height="5" class="filled"></rect><rect x="147.5" y="165.5" fill="#EEEEEE" width="5" height="5" class=""></rect><rect x="291.5" y="165.5" fill="#FF0000" width="5" height="5" class="filled"></rect><rect x="3.5" y="171.5" fill="#FF0000" width="5" height="5" class="filled"></rect><rect x="147.5" y="171.5" fill="#F8F8F8" width="5" height="5" class=""></rect><rect x="291.5" y="171.5" fill="#FF0000" width="5" height="5" class="filled"></rect><rect x="9.5" y="177.5" fill="#FF0000" width="5" height="5" class="filled"></rect><rect x="147.5" y="177.5" fill="#EEEEEE" width="5" height="5" class=""></rect><rect x="285.5" y="177.5" fill="#FF0000" width="5" height="5" class="filled"></rect><rect x="9.5" y="183.5" fill="#FF0000" width="5" height="5" class="filled"></rect><rect x="147.5" y="183.5" fill="#F8F8F8" width="5" height="5" class=""></rect><rect x="285.5" y="183.5" fill="#FF0000" width="5" height="5" class="filled"></rect><rect x="9.5" y="189.5" fill="#FF0000" width="5" height="5" class="filled"></rect><rect x="147.5" y="189.5" fill="#EEEEEE" width="5" height="5" class=""></rect><rect x="285.5" y="189.5" fill="#FF0000" width="5" height="5" class="filled"></rect><rect x="9.5" y="195.5" fill="#FF0000" width="5" height="5" class="filled"></rect><rect x="147.5" y="195.5" fill="#F8F8F8" width="5" height="5" class=""></rect><rect x="285.5" y="195.5" fill="#FF0000" width="5" height="5" class="filled"></rect><rect x="15.5" y="201.5" fill="#FF0000" width="5" height="5" class="filled"></rect><rect x="147.5" y="201.5" fill="#EEEEEE" width="5" height="5" class=""></rect><rect x="279.5" y="201.5" fill="#FF0000" width="5" height="5" class="filled"></rect><rect x="15.5" y="207.5" fill="#FF0000" width="5" height="5" class="filled"></rect><rect x="147.5" y="207.5" fill="#F8F8F8" width="5" height="5" class=""></rect><rect x="279.5" y="207.5" fill="#FF0000" width="5" height="5" class="filled"></rect><rect x="21.5" y="213.5" fill="#FF0000" width="5" height="5" class="filled"></rect><rect x="147.5" y="213.5" fill="#EEEEEE" width="5" height="5" class=""></rect><rect x="273.5" y="213.5" fill="#FF0000" width="5" height="5" class="filled"></rect><rect x="21.5" y="219.5" fill="#FF0000" width="5" height="5" class="filled"></rect><rect x="147.5" y="219.5" fill="#F8F8F8" width="5" height="5" class=""></rect><rect x="273.5" y="219.5" fill="#FF0000" width="5" height="5" class="filled"></rect><rect x="27.5" y="225.5" fill="#FF0000" width="5" height="5" class="filled"></rect><rect x="147.5" y="225.5" fill="#EEEEEE" width="5" height="5" class=""></rect><rect x="267.5" y="225.5" fill="#FF0000" width="5" height="5" class="filled"></rect><rect x="27.5" y="231.5" fill="#FF0000" width="5" height="5" class="filled"></rect><rect x="147.5" y="231.5" fill="#F8F8F8" width="5" height="5" class=""></rect><rect x="267.5" y="231.5" fill="#FF0000" width="5" height="5" class="filled"></rect><rect x="33.5" y="237.5" fill="#FF0000" width="5" height="5" class="filled"></rect><rect x="147.5" y="237.5" fill="#EEEEEE" width="5" height="5" class=""></rect><rect x="261.5" y="237.5" fill="#FF0000" width="5" height="5" class="filled"></rect><rect x="39.5" y="243.5" fill="#FF0000" width="5" height="5" class="filled"></rect><rect x="147.5" y="243.5" fill="#F8F8F8" width="5" height="5" class=""></rect><rect x="255.5" y="243.5" fill="#FF0000" width="5" height="5" class="filled"></rect><rect x="45.5" y="249.5" fill="#FF0000" width="5" height="5" class="filled"></rect><rect x="147.5" y="249.5" fill="#EEEEEE" width="5" height="5" class=""></rect><rect x="249.5" y="249.5" fill="#FF0000" width="5" height="5" class="filled"></rect><rect x="51.5" y="255.5" fill="#FF0000" width="5" height="5" class="filled"></rect><rect x="147.5" y="255.5" fill="#F8F8F8" width="5" height="5" class=""></rect><rect x="243.5" y="255.5" fill="#FF0000" width="5" height="5" class="filled"></rect><rect x="57.5" y="261.5" fill="#FF0000" width="5" height="5" class="filled"></rect><rect x="147.5" y="261.5" fill="#EEEEEE" width="5" height="5" class=""></rect><rect x="237.5" y="261.5" fill="#FF0000" width="5" height="5" class="filled"></rect><rect x="63.5" y="267.5" fill="#FF0000" width="5" height="5" class="filled"></rect><rect x="69.5" y="267.5" fill="#FF0000" width="5" height="5" class="filled"></rect><rect x="147.5" y="267.5" fill="#F8F8F8" width="5" height="5" class=""></rect><rect x="225.5" y="267.5" fill="#FF0000" width="5" height="5" class="filled"></rect><rect x="231.5" y="267.5" fill="#FF0000" width="5" height="5" class="filled"></rect><rect x="75.5" y="273.5" fill="#FF0000" width="5" height="5" class="filled"></rect><rect x="81.5" y="273.5" fill="#FF0000" width="5" height="5" class="filled"></rect><rect x="147.5" y="273.5" fill="#EEEEEE" width="5" height="5" class=""></rect><rect x="213.5" y="273.5" fill="#FF0000" width="5" height="5" class="filled"></rect><rect x="219.5" y="273.5" fill="#FF0000" width="5" height="5" class="filled"></rect><rect x="87.5" y="279.5" fill="#FF0000" width="5" height="5" class="filled"></rect><rect x="93.5" y="279.5" fill="#FF0000" width="5" height="5" class="filled"></rect><rect x="147.5" y="279.5" fill="#F8F8F8" width="5" height="5" class=""></rect><rect x="201.5" y="279.5" fill="#FF0000" width="5" height="5" class="filled"></rect><rect x="207.5" y="279.5" fill="#FF0000" width="5" height="5" class="filled"></rect><rect x="99.5" y="285.5" fill="#FF0000" width="5" height="5" class="filled"></rect><rect x="105.5" y="285.5" fill="#FF0000" width="5" height="5" class="filled"></rect><rect x="111.5" y="285.5" fill="#FF0000" width="5" height="5" class="filled"></rect><rect x="117.5" y="285.5" fill="#FF0000" width="5" height="5" class="filled"></rect><rect x="147.5" y="285.5" fill="#EEEEEE" width="5" height="5" class=""></rect><rect x="177.5" y="285.5" fill="#FF0000" width="5" height="5" class="filled"></rect><rect x="183.5" y="285.5" fill="#FF0000" width="5" height="5" class="filled"></rect><rect x="189.5" y="285.5" fill="#FF0000" width="5" height="5" class="filled"></rect><rect x="195.5" y="285.5" fill="#FF0000" width="5" height="5" class="filled"></rect><rect x="123.5" y="291.5" fill="#FF0000" width="5" height="5" class="filled"></rect><rect x="129.5" y="291.5" fill="#FF0000" width="5" height="5" class="filled"></rect><rect x="135.5" y="291.5" fill="#FF0000" width="5" height="5" class="filled"></rect><rect x="141.5" y="291.5" fill="#FF0000" width="5" height="5" class="filled"></rect><rect x="147.5" y="291.5" fill="#808080" width="5" height="5" class="filled"></rect><rect x="153.5" y="291.5" fill="#FF0000" width="5" height="5" class="filled"></rect><rect x="159.5" y="291.5" fill="#FF0000" width="5" height="5" class="filled"></rect><rect x="165.5" y="291.5" fill="#FF0000" width="5" height="5" class="filled"></rect><rect x="171.5" y="291.5" fill="#FF0000" width="5" height="5" class="filled"></rect><rect x="2.5" y="0" fill="#bbbbbb" width="1" height="300" opacity=".4"></rect><rect x="8.5" y="0" fill="#bbbbbb" width="1" height="300" opacity=".4"></rect><rect x="14.5" y="0" fill="#bbbbbb" width="1" height="300" opacity=".4"></rect><rect x="20.5" y="0" fill="#bbbbbb" width="1" height="300" opacity=".4"></rect><rect x="26.5" y="0" fill="#bbbbbb" width="1" height="300" opacity=".4"></rect><rect x="32.5" y="0" fill="#bbbbbb" width="1" height="300" opacity=".4"></rect><rect x="38.5" y="0" fill="#bbbbbb" width="1" height="300" opacity=".4"></rect><rect x="44.5" y="0" fill="#bbbbbb" width="1" height="300" opacity=".4"></rect><rect x="50.5" y="0" fill="#bbbbbb" width="1" height="300" opacity=".4"></rect><rect x="56.5" y="0" fill="#bbbbbb" width="1" height="300" opacity=".4"></rect><rect x="62.5" y="0" fill="#bbbbbb" width="1" height="300" opacity=".4"></rect><rect x="68.5" y="0" fill="#bbbbbb" width="1" height="300" opacity=".4"></rect><rect x="74.5" y="0" fill="#bbbbbb" width="1" height="300" opacity=".4"></rect><rect x="80.5" y="0" fill="#bbbbbb" width="1" height="300" opacity=".4"></rect><rect x="86.5" y="0" fill="#bbbbbb" width="1" height="300" opacity=".4"></rect><rect x="92.5" y="0" fill="#bbbbbb" width="1" height="300" opacity=".4"></rect><rect x="98.5" y="0" fill="#bbbbbb" width="1" height="300" opacity=".4"></rect><rect x="104.5" y="0" fill="#bbbbbb" width="1" height="300" opacity=".4"></rect><rect x="110.5" y="0" fill="#bbbbbb" width="1" height="300" opacity=".4"></rect><rect x="116.5" y="0" fill="#bbbbbb" width="1" height="300" opacity=".4"></rect><rect x="122.5" y="0" fill="#bbbbbb" width="1" height="300" opacity=".4"></rect><rect x="128.5" y="0" fill="#bbbbbb" width="1" height="300" opacity=".4"></rect><rect x="134.5" y="0" fill="#bbbbbb" width="1" height="300" opacity=".4"></rect><rect x="140.5" y="0" fill="#bbbbbb" width="1" height="300" opacity=".4"></rect><rect x="146.5" y="0" fill="#bbbbbb" width="1" height="300" opacity=".4"></rect><rect x="152.5" y="0" fill="#bbbbbb" width="1" height="300" opacity=".4"></rect><rect x="158.5" y="0" fill="#bbbbbb" width="1" height="300" opacity=".4"></rect><rect x="164.5" y="0" fill="#bbbbbb" width="1" height="300" opacity=".4"></rect><rect x="170.5" y="0" fill="#bbbbbb" width="1" height="300" opacity=".4"></rect><rect x="176.5" y="0" fill="#bbbbbb" width="1" height="300" opacity=".4"></rect><rect x="182.5" y="0" fill="#bbbbbb" width="1" height="300" opacity=".4"></rect><rect x="188.5" y="0" fill="#bbbbbb" width="1" height="300" opacity=".4"></rect><rect x="194.5" y="0" fill="#bbbbbb" width="1" height="300" opacity=".4"></rect><rect x="200.5" y="0" fill="#bbbbbb" width="1" height="300" opacity=".4"></rect><rect x="206.5" y="0" fill="#bbbbbb" width="1" height="300" opacity=".4"></rect><rect x="212.5" y="0" fill="#bbbbbb" width="1" height="300" opacity=".4"></rect><rect x="218.5" y="0" fill="#bbbbbb" width="1" height="300" opacity=".4"></rect><rect x="224.5" y="0" fill="#bbbbbb" width="1" height="300" opacity=".4"></rect><rect x="230.5" y="0" fill="#bbbbbb" width="1" height="300" opacity=".4"></rect><rect x="236.5" y="0" fill="#bbbbbb" width="1" height="300" opacity=".4"></rect><rect x="242.5" y="0" fill="#bbbbbb" width="1" height="300" opacity=".4"></rect><rect x="248.5" y="0" fill="#bbbbbb" width="1" height="300" opacity=".4"></rect><rect x="254.5" y="0" fill="#bbbbbb" width="1" height="300" opacity=".4"></rect><rect x="260.5" y="0" fill="#bbbbbb" width="1" height="300" opacity=".4"></rect><rect x="266.5" y="0" fill="#bbbbbb" width="1" height="300" opacity=".4"></rect><rect x="272.5" y="0" fill="#bbbbbb" width="1" height="300" opacity=".4"></rect><rect x="278.5" y="0" fill="#bbbbbb" width="1" height="300" opacity=".4"></rect><rect x="284.5" y="0" fill="#bbbbbb" width="1" height="300" opacity=".4"></rect><rect x="290.5" y="0" fill="#bbbbbb" width="1" height="300" opacity=".4"></rect><rect x="296.5" y="0" fill="#bbbbbb" width="1" height="300" opacity=".4"></rect><rect x="0" y="2.5" fill="#bbbbbb" width="300" opacity=".6" height="1"></rect><rect x="0" y="8.5" fill="#bbbbbb" width="300" opacity=".6" height="1"></rect><rect x="0" y="14.5" fill="#bbbbbb" width="300" opacity=".6" height="1"></rect><rect x="0" y="20.5" fill="#bbbbbb" width="300" opacity=".6" height="1"></rect><rect x="0" y="26.5" fill="#bbbbbb" width="300" opacity=".6" height="1"></rect><rect x="0" y="32.5" fill="#bbbbbb" width="300" opacity=".6" height="1"></rect><rect x="0" y="38.5" fill="#bbbbbb" width="300" opacity=".6" height="1"></rect><rect x="0" y="44.5" fill="#bbbbbb" width="300" opacity=".6" height="1"></rect><rect x="0" y="50.5" fill="#bbbbbb" width="300" opacity=".6" height="1"></rect><rect x="0" y="56.5" fill="#bbbbbb" width="300" opacity=".6" height="1"></rect><rect x="0" y="62.5" fill="#bbbbbb" width="300" opacity=".6" height="1"></rect><rect x="0" y="68.5" fill="#bbbbbb" width="300" opacity=".6" height="1"></rect><rect x="0" y="74.5" fill="#bbbbbb" width="300" opacity=".6" height="1"></rect><rect x="0" y="80.5" fill="#bbbbbb" width="300" opacity=".6" height="1"></rect><rect x="0" y="86.5" fill="#bbbbbb" width="300" opacity=".6" height="1"></rect><rect x="0" y="92.5" fill="#bbbbbb" width="300" opacity=".6" height="1"></rect><rect x="0" y="98.5" fill="#bbbbbb" width="300" opacity=".6" height="1"></rect><rect x="0" y="104.5" fill="#bbbbbb" width="300" opacity=".6" height="1"></rect><rect x="0" y="110.5" fill="#bbbbbb" width="300" opacity=".6" height="1"></rect><rect x="0" y="116.5" fill="#bbbbbb" width="300" opacity=".6" height="1"></rect><rect x="0" y="122.5" fill="#bbbbbb" width="300" opacity=".6" height="1"></rect><rect x="0" y="128.5" fill="#bbbbbb" width="300" opacity=".6" height="1"></rect><rect x="0" y="134.5" fill="#bbbbbb" width="300" opacity=".6" height="1"></rect><rect x="0" y="140.5" fill="#bbbbbb" width="300" opacity=".6" height="1"></rect><rect x="0" y="146.5" fill="#bbbbbb" width="300" opacity=".6" height="1"></rect><rect x="0" y="152.5" fill="#bbbbbb" width="300" opacity=".6" height="1"></rect><rect x="0" y="158.5" fill="#bbbbbb" width="300" opacity=".6" height="1"></rect><rect x="0" y="164.5" fill="#bbbbbb" width="300" opacity=".6" height="1"></rect><rect x="0" y="170.5" fill="#bbbbbb" width="300" opacity=".6" height="1"></rect><rect x="0" y="176.5" fill="#bbbbbb" width="300" opacity=".6" height="1"></rect><rect x="0" y="182.5" fill="#bbbbbb" width="300" opacity=".6" height="1"></rect><rect x="0" y="188.5" fill="#bbbbbb" width="300" opacity=".6" height="1"></rect><rect x="0" y="194.5" fill="#bbbbbb" width="300" opacity=".6" height="1"></rect><rect x="0" y="200.5" fill="#bbbbbb" width="300" opacity=".6" height="1"></rect><rect x="0" y="206.5" fill="#bbbbbb" width="300" opacity=".6" height="1"></rect><rect x="0" y="212.5" fill="#bbbbbb" width="300" opacity=".6" height="1"></rect><rect x="0" y="218.5" fill="#bbbbbb" width="300" opacity=".6" height="1"></rect><rect x="0" y="224.5" fill="#bbbbbb" width="300" opacity=".6" height="1"></rect><rect x="0" y="230.5" fill="#bbbbbb" width="300" opacity=".6" height="1"></rect><rect x="0" y="236.5" fill="#bbbbbb" width="300" opacity=".6" height="1"></rect><rect x="0" y="242.5" fill="#bbbbbb" width="300" opacity=".6" height="1"></rect><rect x="0" y="248.5" fill="#bbbbbb" width="300" opacity=".6" height="1"></rect><rect x="0" y="254.5" fill="#bbbbbb" width="300" opacity=".6" height="1"></rect><rect x="0" y="260.5" fill="#bbbbbb" width="300" opacity=".6" height="1"></rect><rect x="0" y="266.5" fill="#bbbbbb" width="300" opacity=".6" height="1"></rect><rect x="0" y="272.5" fill="#bbbbbb" width="300" opacity=".6" height="1"></rect><rect x="0" y="278.5" fill="#bbbbbb" width="300" opacity=".6" height="1"></rect><rect x="0" y="284.5" fill="#bbbbbb" width="300" opacity=".6" height="1"></rect><rect x="0" y="290.5" fill="#bbbbbb" width="300" opacity=".6" height="1"></rect><rect x="0" y="296.5" fill="#bbbbbb" width="300" opacity=".6" height="1"></rect><line id="selection_line" x1="0" y1="0" x2="0" y2="0" style="stroke:rgb(0,255,0);" stroke-width="3" stroke-linecap="round" opacity="0"></line></svg>