<svg id="svg_circle" xmlns="http://www.w3.org/2000/svg" data-w="42" data-h="42" width="636px" height="636px" viewBox="0 0 42 42" style="width: 636px; height: 636px;"><rect x="9.5" y="3.5" fill="#FF0000" width="5" height="5" class="filled"></rect><rect x="15.5" y="3.5" fill="#FF0000" width="5" height="5" class="filled"></rect><rect x="21.5" y="3.5" fill="#FF0000" width="5" height="5" class="filled"></rect><rect x="27.5" y="3.5" fill="#FF0000" width="5" height="5" class="filled"></rect><rect x="3.5" y="9.5" fill="#FF0000" width="5" height="5" class="filled"></rect><rect x="33.5" y="9.5" fill="#FF0000" width="5" height="5" class="filled"></rect><rect x="3.5" y="15.5" fill="#FF0000" width="5" height="5" class="filled"></rect><rect x="33.5" y="15.5" fill="#FF0000" width="5" height="5" class="filled"></rect><rect x="3.5" y="21.5" fill="#FF0000" width="5" height="5" class="filled"></rect><rect x="33.5" y="21.5" fill="#FF0000" width="5" height="5" class="filled"></rect><rect x="3.5" y="27.5" fill="#FF0000" width="5" height="5" class="filled"></rect><rect x="33.5" y="27.5" fill="#FF0000" width="5" height="5" class="filled"></rect><rect x="9.5" y="33.5" fill="#FF0000" width="5" height="5" class="filled"></rect><rect x="15.5" y="33.5" fill="#FF0000" width="5" height="5" class="filled"></rect><rect x="21.5" y="33.5" fill="#FF0000" width="5" height="5" class="filled"></rect><rect x="27.5" y="33.5" fill="#FF0000" width="5" height="5" class="filled"></rect><rect x="2.5" y="0" fill="#bbbbbb" width="1" height="42" opacity=".4"></rect><rect x="8.5" y="0" fill="#bbbbbb" width="1" height="42" opacity=".4"></rect><rect x="14.5" y="0" fill="#bbbbbb" width="1" height="42" opacity=".4"></rect><rect x="20.5" y="0" fill="#bbbbbb" width="1" height="42" opacity=".4"></rect><rect x="26.5" y="0" fill="#bbbbbb" width="1" height="42" opacity=".4"></rect><rect x="32.5" y="0" fill="#bbbbbb" width="1" height="42" opacity=".4"></rect><rect x="38.5" y="0" fill="#bbbbbb" width="1" height="42" opacity=".4"></rect><rect x="0" y="2.5" fill="#bbbbbb" width="42" opacity=".6" height="1"></rect><rect x="0" y="8.5" fill="#bbbbbb" width="42" opacity=".6" height="1"></rect><rect x="0" y="14.5" fill="#bbbbbb" width="42" opacity=".6" height="1"></rect><rect x="0" y="20.5" fill="#bbbbbb" width="42" opacity=".6" height="1"></rect><rect x="0" y="26.5" fill="#bbbbbb" width="42" opacity=".6" height="1"></rect><rect x="0" y="32.5" fill="#bbbbbb" width="42" opacity=".6" height="1"></rect><rect x="0" y="38.5" fill="#bbbbbb" width="42" opacity=".6" height="1"></rect><line id="selection_line" x1="0" y1="0" x2="0" y2="0" style="stroke:rgb(0,255,0);" stroke-width="3" stroke-linecap="round" opacity="0"></line></svg>