<svg id="svg_circle" xmlns="http://www.w3.org/2000/svg" data-w="60" data-h="60" width="636px" height="636px" viewBox="0 0 60 60" style="width: 636px; height: 636px;"><rect x="15.5" y="3.5" fill="#FF0000" width="5" height="5" class="filled"></rect><rect x="21.5" y="3.5" fill="#FF0000" width="5" height="5" class="filled"></rect><rect x="27.5" y="3.5" fill="#808080" width="5" height="5" class="filled"></rect><rect x="33.5" y="3.5" fill="#FF0000" width="5" height="5" class="filled"></rect><rect x="39.5" y="3.5" fill="#FF0000" width="5" height="5" class="filled"></rect><rect x="9.5" y="9.5" fill="#FF0000" width="5" height="5" class="filled"></rect><rect x="27.5" y="9.5" fill="#EEEEEE" width="5" height="5" class=""></rect><rect x="45.5" y="9.5" fill="#FF0000" width="5" height="5" class="filled"></rect><rect x="3.5" y="15.5" fill="#FF0000" width="5" height="5" class="filled"></rect><rect x="27.5" y="15.5" fill="#F8F8F8" width="5" height="5" class=""></rect><rect x="51.5" y="15.5" fill="#FF0000" width="5" height="5" class="filled"></rect><rect x="3.5" y="21.5" fill="#FF0000" width="5" height="5" class="filled"></rect><rect x="27.5" y="21.5" fill="#EEEEEE" width="5" height="5" class=""></rect><rect x="51.5" y="21.5" fill="#FF0000" width="5" height="5" class="filled"></rect><rect x="3.5" y="27.5" fill="#808080" width="5" height="5" class="filled"></rect><rect x="9.5" y="27.5" fill="#EEEEEE" width="5" height="5" class=""></rect><rect x="15.5" y="27.5" fill="#F8F8F8" width="5" height="5" class=""></rect><rect x="21.5" y="27.5" fill="#EEEEEE" width="5" height="5" class=""></rect><rect x="27.5" y="27.5" fill="#F8F8F8" width="5" height="5" class=""></rect><rect x="33.5" y="27.5" fill="#EEEEEE" width="5" height="5" class=""></rect><rect x="39.5" y="27.5" fill="#F8F8F8" width="5" height="5" class=""></rect><rect x="45.5" y="27.5" fill="#EEEEEE" width="5" height="5" class=""></rect><rect x="51.5" y="27.5" fill="#808080" width="5" height="5" class="filled"></rect><rect x="3.5" y="33.5" fill="#FF0000" width="5" height="5" class="filled"></rect><rect x="27.5" y="33.5" fill="#EEEEEE" width="5" height="5" class=""></rect><rect x="51.5" y="33.5" fill="#FF0000" width="5" height="5" class="filled"></rect><rect x="3.5" y="39.5" fill="#FF0000" width="5" height="5" class="filled"></rect><rect x="27.5" y="39.5" fill="#F8F8F8" width="5" height="5" class=""></rect><rect x="51.5" y="39.5" fill="#FF0000" width="5" height="5" class="filled"></rect><rect x="9.5" y="45.5" fill="#FF0000" width="5" height="5" class="filled"></rect><rect x="27.5" y="45.5" fill="#EEEEEE" width="5" height="5" class=""></rect><rect x="45.5" y="45.5" fill="#FF0000" width="5" height="5" class="filled"></rect><rect x="15.5" y="51.5" fill="#FF0000" width="5" height="5" class="filled"></rect><rect x="21.5" y="51.5" fill="#FF0000" width="5" height="5" class="filled"></rect><rect x="27.5" y="51.5" fill="#808080" width="5" height="5" class="filled"></rect><rect x="33.5" y="51.5" fill="#FF0000" width="5" height="5" class="filled"></rect><rect x="39.5" y="51.5" fill="#FF0000" width="5" height="5" class="filled"></rect><rect x="2.5" y="0" fill="#bbbbbb" width="1" height="60" opacity=".4"></rect><rect x="8.5" y="0" fill="#bbbbbb" width="1" height="60" opacity=".4"></rect><rect x="14.5" y="0" fill="#bbbbbb" width="1" height="60" opacity=".4"></rect><rect x="20.5" y="0" fill="#bbbbbb" width="1" height="60" opacity=".4"></rect><rect x="26.5" y="0" fill="#bbbbbb" width="1" height="60" opacity=".4"></rect><rect x="32.5" y="0" fill="#bbbbbb" width="1" height="60" opacity=".4"></rect><rect x="38.5" y="0" fill="#bbbbbb" width="1" height="60" opacity=".4"></rect><rect x="44.5" y="0" fill="#bbbbbb" width="1" height="60" opacity=".4"></rect><rect x="50.5" y="0" fill="#bbbbbb" width="1" height="60" opacity=".4"></rect><rect x="56.5" y="0" fill="#bbbbbb" width="1" height="60" opacity=".4"></rect><rect x="0" y="2.5" fill="#bbbbbb" width="60" opacity=".6" height="1"></rect><rect x="0" y="8.5" fill="#bbbbbb" width="60" opacity=".6" height="1"></rect><rect x="0" y="14.5" fill="#bbbbbb" width="60" opacity=".6" height="1"></rect><rect x="0" y="20.5" fill="#bbbbbb" width="60" opacity=".6" height="1"></rect><rect x="0" y="26.5" fill="#bbbbbb" width="60" opacity=".6" height="1"></rect><rect x="0" y="32.5" fill="#bbbbbb" width="60" opacity=".6" height="1"></rect><rect x="0" y="38.5" fill="#bbbbbb" width="60" opacity=".6" height="1"></rect><rect x="0" y="44.5" fill="#bbbbbb" width="60" opacity=".6" height="1"></rect><rect x="0" y="50.5" fill="#bbbbbb" width="60" opacity=".6" height="1"></rect><rect x="0" y="56.5" fill="#bbbbbb" width="60" opacity=".6" height="1"></rect><line id="selection_line" x1="0" y1="0" x2="0" y2="0" style="stroke:rgb(0,255,0);" stroke-width="3" stroke-linecap="round" opacity="0"></line></svg>